<mxfile host="app.diagrams.net" modified="2021-08-27T13:55:39.606Z" agent="5.0 (Macintosh; Intel Mac OS X 10_15_7) AppleWebKit/537.36 (KHTML, like Gecko) Chrome/92.0.4515.159 Safari/537.36" etag="BT_H-orYwhSRrq65LRsm" version="14.5.8" type="github">
  <diagram id="MFOUceknjrKw-70LezZ3" name="Page-1">
    <mxGraphModel dx="1004" dy="651" grid="1" gridSize="10" guides="1" tooltips="1" connect="1" arrows="1" fold="1" page="1" pageScale="1" pageWidth="827" pageHeight="1169" math="0" shadow="0">
      <root>
        <mxCell id="0" />
        <mxCell id="1" parent="0" />
        <mxCell id="FUDM0tybxz8S23CUhsSV-1" value="AggregateConfigController" style="rounded=0;whiteSpace=wrap;html=1;" vertex="1" parent="1">
          <mxGeometry x="155" y="130" width="290" height="80" as="geometry" />
        </mxCell>
        <mxCell id="FUDM0tybxz8S23CUhsSV-5" style="edgeStyle=orthogonalEdgeStyle;rounded=0;orthogonalLoop=1;jettySize=auto;html=1;exitX=0.5;exitY=0;exitDx=0;exitDy=0;" edge="1" parent="1" source="FUDM0tybxz8S23CUhsSV-2" target="FUDM0tybxz8S23CUhsSV-1">
          <mxGeometry relative="1" as="geometry" />
        </mxCell>
        <mxCell id="FUDM0tybxz8S23CUhsSV-10" style="edgeStyle=orthogonalEdgeStyle;rounded=0;orthogonalLoop=1;jettySize=auto;html=1;startArrow=classic;startFill=1;" edge="1" parent="1" source="FUDM0tybxz8S23CUhsSV-2" target="FUDM0tybxz8S23CUhsSV-9">
          <mxGeometry relative="1" as="geometry" />
        </mxCell>
        <mxCell id="FUDM0tybxz8S23CUhsSV-11" style="edgeStyle=orthogonalEdgeStyle;rounded=0;orthogonalLoop=1;jettySize=auto;html=1;exitX=0.5;exitY=1;exitDx=0;exitDy=0;" edge="1" parent="1" source="FUDM0tybxz8S23CUhsSV-2" target="FUDM0tybxz8S23CUhsSV-8">
          <mxGeometry relative="1" as="geometry" />
        </mxCell>
        <mxCell id="FUDM0tybxz8S23CUhsSV-2" value="KubeConfigController" style="rounded=0;whiteSpace=wrap;html=1;" vertex="1" parent="1">
          <mxGeometry x="40" y="310" width="160" height="80" as="geometry" />
        </mxCell>
        <mxCell id="FUDM0tybxz8S23CUhsSV-6" style="edgeStyle=orthogonalEdgeStyle;rounded=0;orthogonalLoop=1;jettySize=auto;html=1;exitX=0.5;exitY=0;exitDx=0;exitDy=0;entryX=0.5;entryY=1;entryDx=0;entryDy=0;" edge="1" parent="1" source="FUDM0tybxz8S23CUhsSV-3" target="FUDM0tybxz8S23CUhsSV-1">
          <mxGeometry relative="1" as="geometry" />
        </mxCell>
        <mxCell id="FUDM0tybxz8S23CUhsSV-14" style="edgeStyle=orthogonalEdgeStyle;rounded=0;orthogonalLoop=1;jettySize=auto;html=1;exitX=0.5;exitY=1;exitDx=0;exitDy=0;startArrow=classic;startFill=1;" edge="1" parent="1" source="FUDM0tybxz8S23CUhsSV-3" target="FUDM0tybxz8S23CUhsSV-13">
          <mxGeometry relative="1" as="geometry" />
        </mxCell>
        <mxCell id="FUDM0tybxz8S23CUhsSV-19" style="edgeStyle=orthogonalEdgeStyle;rounded=0;orthogonalLoop=1;jettySize=auto;html=1;exitX=0.5;exitY=1;exitDx=0;exitDy=0;entryX=0.5;entryY=0;entryDx=0;entryDy=0;startArrow=classic;startFill=1;" edge="1" parent="1" source="FUDM0tybxz8S23CUhsSV-3" target="FUDM0tybxz8S23CUhsSV-8">
          <mxGeometry relative="1" as="geometry" />
        </mxCell>
        <mxCell id="FUDM0tybxz8S23CUhsSV-3" value="MCPConfigController" style="rounded=0;whiteSpace=wrap;html=1;" vertex="1" parent="1">
          <mxGeometry x="220" y="310" width="160" height="80" as="geometry" />
        </mxCell>
        <mxCell id="FUDM0tybxz8S23CUhsSV-7" style="edgeStyle=orthogonalEdgeStyle;rounded=0;orthogonalLoop=1;jettySize=auto;html=1;exitX=0.5;exitY=0;exitDx=0;exitDy=0;entryX=0.5;entryY=1;entryDx=0;entryDy=0;" edge="1" parent="1" source="FUDM0tybxz8S23CUhsSV-4" target="FUDM0tybxz8S23CUhsSV-1">
          <mxGeometry relative="1" as="geometry" />
        </mxCell>
        <mxCell id="FUDM0tybxz8S23CUhsSV-16" style="edgeStyle=orthogonalEdgeStyle;rounded=0;orthogonalLoop=1;jettySize=auto;html=1;exitX=0.5;exitY=1;exitDx=0;exitDy=0;startArrow=classic;startFill=1;" edge="1" parent="1" source="FUDM0tybxz8S23CUhsSV-4" target="FUDM0tybxz8S23CUhsSV-15">
          <mxGeometry relative="1" as="geometry" />
        </mxCell>
        <mxCell id="FUDM0tybxz8S23CUhsSV-20" style="edgeStyle=orthogonalEdgeStyle;rounded=0;orthogonalLoop=1;jettySize=auto;html=1;exitX=0.5;exitY=1;exitDx=0;exitDy=0;startArrow=classic;startFill=1;" edge="1" parent="1" source="FUDM0tybxz8S23CUhsSV-4" target="FUDM0tybxz8S23CUhsSV-8">
          <mxGeometry relative="1" as="geometry" />
        </mxCell>
        <mxCell id="FUDM0tybxz8S23CUhsSV-4" value="FileConfigController" style="rounded=0;whiteSpace=wrap;html=1;" vertex="1" parent="1">
          <mxGeometry x="400" y="310" width="160" height="80" as="geometry" />
        </mxCell>
        <mxCell id="FUDM0tybxz8S23CUhsSV-8" value="Xds Context" style="rounded=0;whiteSpace=wrap;html=1;" vertex="1" parent="1">
          <mxGeometry x="240" y="650" width="120" height="60" as="geometry" />
        </mxCell>
        <mxCell id="FUDM0tybxz8S23CUhsSV-9" value="k8s" style="shape=cylinder3;whiteSpace=wrap;html=1;boundedLbl=1;backgroundOutline=1;size=15;" vertex="1" parent="1">
          <mxGeometry x="40" y="440" width="60" height="80" as="geometry" />
        </mxCell>
        <mxCell id="FUDM0tybxz8S23CUhsSV-12" value="Watch" style="text;html=1;align=center;verticalAlign=middle;resizable=0;points=[];autosize=1;strokeColor=none;" vertex="1" parent="1">
          <mxGeometry x="70" y="420" width="50" height="20" as="geometry" />
        </mxCell>
        <mxCell id="FUDM0tybxz8S23CUhsSV-13" value="mcp server" style="shape=cylinder3;whiteSpace=wrap;html=1;boundedLbl=1;backgroundOutline=1;size=15;" vertex="1" parent="1">
          <mxGeometry x="210" y="440" width="60" height="80" as="geometry" />
        </mxCell>
        <mxCell id="FUDM0tybxz8S23CUhsSV-15" value="file" style="shape=cylinder3;whiteSpace=wrap;html=1;boundedLbl=1;backgroundOutline=1;size=15;" vertex="1" parent="1">
          <mxGeometry x="400" y="440" width="60" height="80" as="geometry" />
        </mxCell>
        <mxCell id="FUDM0tybxz8S23CUhsSV-17" value="Watch" style="text;html=1;align=center;verticalAlign=middle;resizable=0;points=[];autosize=1;strokeColor=none;" vertex="1" parent="1">
          <mxGeometry x="250" y="420" width="50" height="20" as="geometry" />
        </mxCell>
        <mxCell id="FUDM0tybxz8S23CUhsSV-18" value="Watch" style="text;html=1;align=center;verticalAlign=middle;resizable=0;points=[];autosize=1;strokeColor=none;" vertex="1" parent="1">
          <mxGeometry x="430" y="420" width="50" height="20" as="geometry" />
        </mxCell>
        <mxCell id="FUDM0tybxz8S23CUhsSV-21" value="OnEvent" style="text;html=1;align=center;verticalAlign=middle;resizable=0;points=[];autosize=1;strokeColor=none;" vertex="1" parent="1">
          <mxGeometry x="300" y="550" width="60" height="20" as="geometry" />
        </mxCell>
      </root>
    </mxGraphModel>
  </diagram>
</mxfile>
